# File created by Blade
# Date/Time:  Wed Jan 21 15:55:51 2015
# Frame Rate: 120.000 fps
#------------------------------------------------------
:FULLY-SPECIFIED
:DEGREES
1280
root 19.036103 35.444588 -21.943426 -173.656067 0.028726 -179.082277
Spine -15.920243 2.102181 -1.343305
Head 8.677498 -5.070230 -0.006759
LeftShoulder -10.901508 -32.189084 19.932091
LeftArm 3.914159 -1.166910 -5.852745
LeftForeArm 13.056412 -0.000000 -0.934802
LeftHand -9.261426 -0.000000 -0.116197
LeftHandThumb1 -26.253704 0.000000 33.147579
RightShoulder -14.791183 -4.566431 -9.340960
RightArm 1.363209 37.309863 7.769762
RightForeArm -36.975157 0.000000 4.413106
RightHand -4.718651 -0.000000 6.432329
RightHandThumb1 -24.326973 -0.000000 -32.862282
LeftUpLeg 3.010587 9.635676 3.146045
LeftLeg -5.121865 -0.000000 0.000000
LeftFoot -21.841047 24.837594 -15.125676
LeftToeBase 25.874302 -0.000000 -0.000000
RightUpLeg 2.898939 -8.597507 -1.750942
RightLeg -3.622862 -0.000000 0.000000
RightFoot -21.828483 -24.319596 18.152173
RightToeBase 23.885482 -0.000000 -0.000000
1281
root 19.075056 35.440436 -21.972794 -173.773880 0.013489 -179.027791
Spine -15.828737 2.078149 -1.299646
Head 8.895808 -5.067955 0.025488
LeftShoulder -11.070020 -32.298322 20.225685
LeftArm 3.881525 -0.895736 -5.699152
LeftForeArm 13.003315 -0.000000 -1.018833
LeftHand -9.372500 0.000000 -0.138705
LeftHandThumb1 -26.253704 0.000000 33.147579
RightShoulder -14.764445 -4.359165 -9.535427
RightArm 1.149183 37.541043 7.479380
RightForeArm -37.108009 -0.000000 4.501047
RightHand -5.073925 -0.000000 6.216179
RightHandThumb1 -24.326973 -0.000000 -32.862282
LeftUpLeg 3.210323 9.608695 3.288754
LeftLeg -5.195068 -0.000000 0.000000
LeftFoot -21.856011 24.891906 -15.144050
LeftToeBase 25.932081 -0.000000 -0.000000
RightUpLeg 3.029710 -8.307846 -1.639282
RightLeg -3.547302 -0.000000 0.000000
RightFoot -21.986367 -24.573890 18.142032
RightToeBase 23.880904 -0.000000 -0.000000
1282
root 19.106253 35.435837 -22.004737 -173.889801 -0.071681 -179.008898
Spine -15.747064 2.021601 -1.284051
Head 9.134806 -5.233920 0.042218
LeftShoulder -11.154021 -32.369824 20.433436
LeftArm 3.829039 -0.773001 -5.500065
LeftForeArm 13.132097 -0.000000 -1.096434
LeftHand -9.438084 -0.000000 -0.235570
LeftHandThumb1 -26.253704 0.000000 33.147579
RightShoulder -14.772848 -4.170025 -9.707155
RightArm 0.945067 37.629054 7.111339
RightForeArm -36.851778 -0.000000 4.444798
RightHand -5.155893 -0.000000 6.000091
RightHandThumb1 -24.326973 -0.000000 -32.862282
LeftUpLeg 3.381116 9.480332 3.386747
LeftLeg -5.227441 -0.000000 0.000000
LeftFoot -21.895423 24.960288 -15.201583
LeftToeBase 25.942318 -0.000000 -0.000000
RightUpLeg 3.208011 -8.269638 -1.562792
RightLeg -3.550034 -0.000000 0.000000
RightFoot -22.033955 -24.759267 18.003327
RightToeBase 23.819071 -0.000000 -0.000000
1283
root 19.142933 35.431578 -22.037618 -174.042586 -0.158897 -178.965372
Spine -15.599349 1.970497 -1.276664
Head 9.292535 -5.178025 0.164692
LeftShoulder -11.233987 -32.527322 20.695042
LeftArm 3.727721 -0.703147 -5.332959
LeftForeArm 13.269244 -0.000000 -1.163289
LeftHand -9.582865 0.000000 -0.370342
LeftHandThumb1 -26.253704 0.000000 33.147579
RightShoulder -14.860806 -4.049967 -9.839775
RightArm 0.885539 37.741602 6.894901
RightForeArm -36.762168 -0.000000 4.394518
RightHand -5.260410 -0.000000 5.696512
RightHandThumb1 -24.326973 -0.000000 -32.862282
LeftUpLeg 3.597438 9.377112 3.528262
LeftLeg -5.273953 -0.000000 0.000000
LeftFoot -21.903723 24.995505 -15.221595
LeftToeBase 25.915805 -0.000000 -0.000000
RightUpLeg 3.418214 -8.179697 -1.467255
RightLeg -3.535467 -0.000000 0.000000
RightFoot -22.134349 -24.895605 18.049297
RightToeBase 23.668678 -0.000000 -0.000000
1284
root 19.174424 35.427912 -22.062914 -174.141496 -0.200508 -178.957612
Spine -15.504286 1.925979 -1.309221
Head 9.442313 -5.172647 0.315532
LeftShoulder -11.340556 -32.586732 20.953343
LeftArm 3.642952 -0.627882 -5.159427
LeftForeArm 13.248429 -0.000000 -1.235927
LeftHand -9.718249 -0.000000 -0.471307
LeftHandThumb1 -26.253704 0.000000 33.147579
RightShoulder -14.897748 -3.943596 -9.960991
RightArm 0.801133 37.709569 6.683974
RightForeArm -36.598504 0.000000 4.420046
RightHand -5.515638 -0.000000 5.544543
RightHandThumb1 -24.326973 -0.000000 -32.862282
LeftUpLeg 3.748705 9.286951 3.611494
LeftLeg -5.308514 -0.000000 0.000000
LeftFoot -21.914655 25.050489 -15.276539
LeftToeBase 25.913086 -0.000000 -0.000000
RightUpLeg 3.542709 -8.103504 -1.410366
RightLeg -3.483251 -0.000000 0.000000
RightFoot -22.233108 -25.020897 17.982200
RightToeBase 23.633931 -0.000000 -0.000000
1285
root 19.203801 35.423889 -22.097413 -174.294838 -0.270634 -178.944421
Spine -15.372096 1.836253 -1.313477
Head 9.631356 -5.168852 0.385455
LeftShoulder -11.439472 -32.627165 21.176545
LeftArm 3.530055 -0.773622 -4.973738
LeftForeArm 13.454029 -0.000000 -1.312857
LeftHand -9.761907 -0.000000 -0.576481
LeftHandThumb1 -26.253704 0.000000 33.147579
RightShoulder -14.906561 -3.826776 -10.100577
RightArm 0.728453 37.737633 6.499988
RightForeArm -36.626548 -0.000000 4.412595
RightHand -5.651843 0.000000 5.261432
RightHandThumb1 -24.326973 -0.000000 -32.862282
LeftUpLeg 3.979673 9.183195 3.712004
LeftLeg -5.369503 -0.000000 0.000000
LeftFoot -21.902900 25.069844 -15.316785
LeftToeBase 25.883422 -0.000000 -0.000000
RightUpLeg 3.762874 -8.110686 -1.362891
RightLeg -3.480552 -0.000000 0.000000
RightFoot -22.281925 -25.092828 17.839071
RightToeBase 23.660587 -0.000000 -0.000000
1286
root 19.234879 35.420856 -22.127230 -174.413278 -0.333918 -178.922619
Spine -15.266381 1.804705 -1.337522
Head 9.810877 -5.176947 0.507200
LeftShoulder -11.474008 -32.732860 21.379669
LeftArm 3.386927 -0.867270 -4.778719
LeftForeArm 13.613986 -0.000000 -1.336920
LeftHand -9.738159 -0.000000 -0.771133
LeftHandThumb1 -26.253704 0.000000 33.147579
RightShoulder -14.999825 -3.764819 -10.201907
RightArm 0.734706 37.762377 6.362673
RightForeArm -36.479583 -0.000000 4.370181
RightHand -5.795856 0.000000 5.016256
RightHandThumb1 -24.326973 -0.000000 -32.862282
LeftUpLeg 4.156725 9.101250 3.817084
LeftLeg -5.407806 -0.000000 0.000000
LeftFoot -21.905366 25.078124 -15.364688
LeftToeBase 25.833249 -0.000000 -0.000000
RightUpLeg 3.907956 -8.202516 -1.306159
RightLeg -3.416454 -0.000000 0.000000
RightFoot -22.351877 -25.049652 17.782833
RightToeBase 23.655958 -0.000000 -0.000000
1287
root 19.258790 35.418174 -22.153414 -174.481776 -0.371395 -178.932170
Spine -15.223202 1.788772 -1.394154
Head 9.985700 -5.239341 0.636960
LeftShoulder -11.514986 -32.841530 21.584547
LeftArm 3.245083 -0.972735 -4.599258
LeftForeArm 13.690079 -0.000000 -1.412515
LeftHand -9.693583 0.000000 -0.792676
LeftHandThumb1 -26.253704 0.000000 33.147579
RightShoulder -15.079713 -3.715882 -10.324954
RightArm 0.747018 37.757999 6.290830
RightForeArm -36.602356 -0.000000 4.360783
RightHand -5.908941 -0.000000 4.883044
RightHandThumb1 -24.326973 -0.000000 -32.862282
LeftUpLeg 4.282086 9.022594 3.866523
LeftLeg -5.445481 -0.000000 0.000000
LeftFoot -21.899687 25.103152 -15.436307
LeftToeBase 25.832734 -0.000000 -0.000000
RightUpLeg 4.009653 -8.193747 -1.285095
RightLeg -3.381508 -0.000000 0.000000
RightFoot -22.415044 -25.097551 17.701608
RightToeBase 23.722668 -0.000000 -0.000000
1288
root 19.287266 35.415379 -22.182741 -174.585956 -0.525333 -178.914030
Spine -15.145375 1.634731 -1.419108
Head 10.156670 -5.228436 0.796130
LeftShoulder -11.563521 -32.967943 21.812506
LeftArm 3.067280 -1.089945 -4.421006
LeftForeArm 13.776818 -0.000000 -1.423081
LeftHand -9.623207 0.000000 -0.928112
LeftHandThumb1 -26.253704 0.000000 33.147579
RightShoulder -15.133937 -3.681852 -10.396640
RightArm 0.770420 37.754056 6.204298
RightForeArm -36.638250 0.000000 4.362173
RightHand -6.043358 -0.000000 4.681211
RightHandThumb1 -24.326973 -0.000000 -32.862282
LeftUpLeg 4.421881 8.834604 3.967507
LeftLeg -5.474288 -0.000000 0.000000
LeftFoot -21.896132 25.130152 -15.466472
LeftToeBase 25.778740 -0.000000 -0.000000
RightUpLeg 4.178125 -8.311378 -1.227450
RightLeg -3.371995 -0.000000 0.000000
RightFoot -22.499930 -25.105717 17.733977
RightToeBase 23.692479 -0.000000 -0.000000
1289
root 19.312207 35.413029 -22.205522 -174.640567 -0.604295 -178.905010
Spine -15.119279 1.571329 -1.454915
Head 10.359627 -5.222536 0.917988
LeftShoulder -11.596384 -33.098638 22.019725
LeftArm 2.917367 -1.164626 -4.257367
LeftForeArm 13.816251 0.000000 -1.491964
LeftHand -9.573934 0.000000 -0.916184
LeftHandThumb1 -26.253704 0.000000 33.147579
RightShoulder -15.180505 -3.627198 -10.483659
RightArm 0.736664 37.739018 6.098944
RightForeArm -36.666316 -0.000000 4.405758
RightHand -6.079350 -0.000000 4.656998
RightHandThumb1 -24.326973 -0.000000 -32.862282
LeftUpLeg 4.506287 8.764231 4.038984
LeftLeg -5.490090 -0.000000 0.000000
LeftFoot -21.893022 25.123455 -15.494851
LeftToeBase 25.773353 -0.000000 -0.000000
RightUpLeg 4.260838 -8.358693 -1.187069
RightLeg -3.325217 -0.000000 0.000000
RightFoot -22.557583 -25.079652 17.684778
RightToeBase 23.780883 -0.000000 -0.000000
1290
root 19.334007 35.410603 -22.228860 -174.672712 -0.695943 -178.909684
Spine -15.121737 1.487513 -1.502306
Head 10.530523 -5.295751 1.020750
LeftShoulder -11.675874 -33.135361 22.202956
LeftArm 2.858307 -1.366172 -4.102159
LeftForeArm 13.927633 -0.000000 -1.600489
LeftHand -9.580218 -0.000000 -0.933543
LeftHandThumb1 -26.253704 0.000000 33.147579
RightShoulder -15.246861 -3.610881 -10.593304
RightArm 0.745633 37.714967 6.099738
RightForeArm -36.786443 -0.000000 4.490693
RightHand -6.190790 -0.000000 4.572534
RightHandThumb1 -24.326973 -0.000000 -32.862282
LeftUpLeg 4.573730 8.681657 4.088499
LeftLeg -5.519476 -0.000000 0.000000
LeftFoot -21.885011 25.109836 -15.545817
LeftToeBase 25.786468 -0.000000 -0.000000
RightUpLeg 4.328457 -8.542206 -1.160022
RightLeg -3.297099 -0.000000 0.000000
RightFoot -22.578883 -24.994734 17.624286
RightToeBase 23.754152 -0.000000 -0.000000
